<svg version="1.1" xmlns="http://www.w3.org/2000/svg" xmlns:xlink="http://www.w3.org/1999/xlink" width="1095" height="751"><defs/><g><g transform="translate(-54,-22) scale(1,1)"><path fill="none" stroke="#000000" d="M 64 32 L 1139 32 L 1139 763 L 64 763 L 64 32" stroke-miterlimit="10"/></g><g transform="translate(-54,-22) scale(1,1)"><path fill="#ffffff" stroke="none" d="M 64 32 L 64 54 L 308.29345703125 54 L 319.29345703125 43 L 319.29345703125 32 L 64 32"/></g><g transform="translate(-54,-22) scale(1,1)"><path fill="none" stroke="#000000" d="M 64 32 L 64 54 L 308.29345703125 54 L 319.29345703125 43 L 319.29345703125 32 L 64 32 L 64 32" stroke-miterlimit="10"/></g><g transform="translate(-54,-22) scale(1,1)"><g><path fill="none" stroke="none"/><text fill="#000000" stroke="none" font-family="Arial" font-size="13px" font-style="normal" font-weight="normal" text-decoration="none" x="134.97900390625" y="49.5">员工职位调动Communication</text></g></g><g transform="translate(-54,-22) scale(1,1)"><g><path fill="none" stroke="none"/><text fill="#000000" stroke="none" font-family="Arial" font-size="13px" font-style="normal" font-weight="bold" text-decoration="none" x="69" y="49.5">interaction</text></g></g><g transform="translate(-54,-22) scale(1,1)"><rect fill="#C0C0C0" stroke="none" x="151" y="303" width="121" height="29" opacity="0.2"/></g><g transform="translate(-54,-22) scale(1,1)"><rect fill="#ffffff" stroke="none" x="144" y="296" width="121" height="29"/></g><g transform="translate(-54,-22) scale(1,1)"><path fill="none" stroke="#000000" d="M 144 296 L 265 296 L 265 325 L 144 325 L 144 296 Z Z" stroke-miterlimit="10"/></g><g transform="translate(-54,-22) scale(1,1)"><rect fill="#ffffff" stroke="none" x="144" y="296" width="121" height="29"/></g><g transform="translate(-54,-22) scale(1,1)"><path fill="none" stroke="#000000" d="M 144 296 L 265 296 L 265 325 L 144 325 L 144 296 Z Z" stroke-miterlimit="10"/></g><g transform="translate(-54,-22) scale(1,1)"><g><path fill="none" stroke="none"/><text fill="#000000" stroke="none" font-family="Arial" font-size="13px" font-style="normal" font-weight="bold" text-decoration="none" x="152.5" y="315.5">：人事部管理人员</text></g></g><g transform="translate(-54,-22) scale(1,1)"><rect fill="#C0C0C0" stroke="none" x="343" y="55" width="99" height="29" opacity="0.2"/></g><g transform="translate(-54,-22) scale(1,1)"><rect fill="#ffffff" stroke="none" x="336" y="48" width="99" height="29"/></g><g transform="translate(-54,-22) scale(1,1)"><path fill="none" stroke="#000000" d="M 336 48 L 435 48 L 435 77 L 336 77 L 336 48 Z Z" stroke-miterlimit="10"/></g><g transform="translate(-54,-22) scale(1,1)"><rect fill="#ffffff" stroke="none" x="336" y="48" width="99" height="29"/></g><g transform="translate(-54,-22) scale(1,1)"><path fill="none" stroke="#000000" d="M 336 48 L 435 48 L 435 77 L 336 77 L 336 48 Z Z" stroke-miterlimit="10"/></g><g transform="translate(-54,-22) scale(1,1)"><g><path fill="none" stroke="none"/><text fill="#000000" stroke="none" font-family="Arial" font-size="13px" font-style="normal" font-weight="bold" text-decoration="none" x="353" y="67.5">：系统界面</text></g></g><g transform="translate(-54,-22) scale(1,1)"><rect fill="#C0C0C0" stroke="none" x="607" y="271" width="99" height="29" opacity="0.2"/></g><g transform="translate(-54,-22) scale(1,1)"><rect fill="#ffffff" stroke="none" x="600" y="264" width="99" height="29"/></g><g transform="translate(-54,-22) scale(1,1)"><path fill="none" stroke="#000000" d="M 600 264 L 699 264 L 699 293 L 600 293 L 600 264 Z Z" stroke-miterlimit="10"/></g><g transform="translate(-54,-22) scale(1,1)"><rect fill="#ffffff" stroke="none" x="600" y="264" width="99" height="29"/></g><g transform="translate(-54,-22) scale(1,1)"><path fill="none" stroke="#000000" d="M 600 264 L 699 264 L 699 293 L 600 293 L 600 264 Z Z" stroke-miterlimit="10"/></g><g transform="translate(-54,-22) scale(1,1)"><g><path fill="none" stroke="none"/><text fill="#000000" stroke="none" font-family="Arial" font-size="13px" font-style="normal" font-weight="bold" text-decoration="none" x="630" y="283.5">：系统</text></g></g><g transform="translate(-54,-22) scale(1,1)"><rect fill="#C0C0C0" stroke="none" x="383" y="503" width="99" height="29" opacity="0.2"/></g><g transform="translate(-54,-22) scale(1,1)"><rect fill="#ffffff" stroke="none" x="376" y="496" width="99" height="29"/></g><g transform="translate(-54,-22) scale(1,1)"><path fill="none" stroke="#000000" d="M 376 496 L 475 496 L 475 525 L 376 525 L 376 496 Z Z" stroke-miterlimit="10"/></g><g transform="translate(-54,-22) scale(1,1)"><rect fill="#ffffff" stroke="none" x="376" y="496" width="99" height="29"/></g><g transform="translate(-54,-22) scale(1,1)"><path fill="none" stroke="#000000" d="M 376 496 L 475 496 L 475 525 L 376 525 L 376 496 Z Z" stroke-miterlimit="10"/></g><g transform="translate(-54,-22) scale(1,1)"><g><path fill="none" stroke="none"/><text fill="#000000" stroke="none" font-family="Arial" font-size="13px" font-style="normal" font-weight="bold" text-decoration="none" x="399.5" y="515.5">：数据库</text></g></g><g transform="translate(-54,-22) scale(1,1)"><path fill="none" stroke="#000000" d="M 215 295 L 373 78" stroke-miterlimit="10"/></g><g transform="translate(-54,-22) scale(1,1)"><path fill="none" stroke="#000000" d="M 281 152 L 258 184" stroke-miterlimit="10"/></g><g transform="translate(-54,-22) scale(1,1)"><path fill="#000000" stroke="none" d="M 278 163 L 281 152 L 270 158"/></g><g transform="translate(-54,-22) scale(1,1)"><g><path fill="none" stroke="none"/><text fill="#000000" stroke="none" font-family="Arial" font-size="13px" font-style="normal" font-weight="normal" text-decoration="none" x="183.46728515625" y="120.5">1 : 点击职工调动按钮</text></g></g><g transform="translate(-54,-22) scale(1,1)"><path fill="none" stroke="#000000" d="M 373 78 L 215 295" stroke-miterlimit="10"/></g><g transform="translate(-54,-22) scale(1,1)"><path fill="none" stroke="#000000" d="M 373 78 L 215 295" stroke-miterlimit="10"/></g><g transform="translate(-54,-22) scale(1,1)"><path fill="none" stroke="#000000" d="M 373 78 L 215 295" stroke-miterlimit="10"/></g><g transform="translate(-54,-22) scale(1,1)"><path fill="none" stroke="#000000" d="M 276 247 L 299 215" stroke-miterlimit="10" stroke-dasharray="3"/></g><g transform="translate(-54,-22) scale(1,1)"><path fill="none" stroke="#000000" d="M 278 235 L 276 247 L 286 240" stroke-miterlimit="10"/></g><g transform="translate(-54,-22) scale(1,1)"><g><path fill="none" stroke="none"/><text fill="#000000" stroke="none" font-family="Arial" font-size="13px" font-style="normal" font-weight="normal" text-decoration="none" x="299.46728515625" y="245.5">2 : 返回职工调动页面</text></g></g><g transform="translate(-54,-22) scale(1,1)"><path fill="none" stroke="#000000" d="M 405 78 L 631 263" stroke-miterlimit="10"/></g><g transform="translate(-54,-22) scale(1,1)"><path fill="none" stroke="#000000" d="M 266 306 L 599 282" stroke-miterlimit="10"/></g><g transform="translate(-54,-22) scale(1,1)"><path fill="none" stroke="#000000" d="M 451 283 L 412 285" stroke-miterlimit="10"/></g><g transform="translate(-54,-22) scale(1,1)"><path fill="#000000" stroke="none" d="M 440 288 L 451 283 L 439 278"/></g><g transform="translate(-54,-22) scale(1,1)"><g><path fill="none" stroke="none"/><text fill="#000000" stroke="none" font-family="Arial" font-size="13px" font-style="normal" font-weight="normal" text-decoration="none" x="356.46728515625" y="279.5">3 : 填写员工职位调动信息</text></g></g><g transform="translate(-54,-22) scale(1,1)"><path fill="none" stroke="#000000" d="M 634 294 L 439 495" stroke-miterlimit="10"/></g><g transform="translate(-54,-22) scale(1,1)"><path fill="none" stroke="#000000" d="M 530 414 L 557 386" stroke-miterlimit="10"/></g><g transform="translate(-54,-22) scale(1,1)"><path fill="#000000" stroke="none" d="M 534 402 L 530 414 L 541 409"/></g><g transform="translate(-54,-22) scale(1,1)"><g><path fill="none" stroke="none"/><text fill="#000000" stroke="none" font-family="Arial" font-size="13px" font-style="normal" font-weight="normal" text-decoration="none" x="575.46728515625" y="394.5">5 : 校验用户，部门表信息</text></g></g><g transform="translate(-54,-22) scale(1,1)"><path fill="none" stroke="#000000" d="M 439 495 L 634 294" stroke-miterlimit="10"/></g><g transform="translate(-54,-22) scale(1,1)"><path fill="none" stroke="#000000" d="M 439 495 L 634 294" stroke-miterlimit="10"/></g><g transform="translate(-54,-22) scale(1,1)"><path fill="none" stroke="#000000" d="M 542 373 L 515 401" stroke-miterlimit="10" stroke-dasharray="3"/></g><g transform="translate(-54,-22) scale(1,1)"><path fill="none" stroke="#000000" d="M 537 384 L 542 373 L 530 377" stroke-miterlimit="10"/></g><g transform="translate(-54,-22) scale(1,1)"><g><path fill="none" stroke="none"/><text fill="#000000" stroke="none" font-family="Arial" font-size="13px" font-style="normal" font-weight="normal" text-decoration="none" x="430.46728515625" y="371.5">6 : 返回验证结果</text></g></g><g transform="translate(-54,-22) scale(1,1)"><path fill="none" stroke="#000000" d="M 634 294 L 439 495" stroke-miterlimit="10"/></g><g transform="translate(-54,-22) scale(1,1)"><path fill="none" stroke="#000000" d="M 631 263 L 405 78" stroke-miterlimit="10"/></g><g transform="translate(-54,-22) scale(1,1)"><path fill="none" stroke="#000000" d="M 537 142 L 568 167" stroke-miterlimit="10" stroke-dasharray="3"/></g><g transform="translate(-54,-22) scale(1,1)"><path fill="none" stroke="#000000" d="M 548 145 L 537 142 L 542 152" stroke-miterlimit="10"/></g><g transform="translate(-54,-22) scale(1,1)"><g><path fill="none" stroke="none"/><text fill="#000000" stroke="none" font-family="Arial" font-size="13px" font-style="normal" font-weight="normal" text-decoration="none" x="525.46728515625" y="129">8 : 返回验证结果</text></g></g><g transform="translate(-54,-22) scale(1,1)"><path fill="none" stroke="#000000" d="M 373 78 L 215 295" stroke-miterlimit="10"/></g><g transform="translate(-54,-22) scale(1,1)"><path fill="none" stroke="#000000" d="M 324 170 L 347 138" stroke-miterlimit="10" stroke-dasharray="3"/></g><g transform="translate(-54,-22) scale(1,1)"><path fill="none" stroke="#000000" d="M 326 158 L 324 170 L 334 163" stroke-miterlimit="10"/></g><g transform="translate(-54,-22) scale(1,1)"><g><path fill="none" stroke="none"/><text fill="#000000" stroke="none" font-family="Arial" font-size="13px" font-style="normal" font-weight="normal" text-decoration="none" x="351.46728515625" y="164.5">9 : 返回验证结果</text></g></g><g transform="translate(-54,-22) scale(1,1)"><path fill="none" stroke="#000000" d="M 425 496 L 425 475 L 504 475 L 504 510 L 475 510" stroke-miterlimit="10"/></g><g transform="translate(-54,-22) scale(1,1)"><path fill="none" stroke="#000000" d="M 495 490 L 495 450" stroke-miterlimit="10"/></g><g transform="translate(-54,-22) scale(1,1)"><path fill="#000000" stroke="none" d="M 490 478 L 495 490 L 499 478"/></g><g transform="translate(-54,-22) scale(1,1)"><g><path fill="none" stroke="none"/><text fill="#000000" stroke="none" font-family="Arial" font-size="13px" font-style="normal" font-weight="normal" text-decoration="none" x="543.352294921875" y="483.5">10 : 记录日志</text></g></g><g transform="translate(-54,-22) scale(1,1)"><path fill="none" stroke="#000000" d="M 425 496 L 425 475 L 504 475 L 504 510 L 475 510" stroke-miterlimit="10"/></g><g transform="translate(-54,-22) scale(1,1)"><path fill="none" stroke="#000000" d="M 518 527 L 518 487" stroke-miterlimit="10"/></g><g transform="translate(-54,-22) scale(1,1)"><path fill="#000000" stroke="none" d="M 513 515 L 518 527 L 522 515"/></g><g transform="translate(-54,-22) scale(1,1)"><g><path fill="none" stroke="none"/><text fill="#000000" stroke="none" font-family="Arial" font-size="13px" font-style="normal" font-weight="normal" text-decoration="none" x="471.334716796875" y="563.5">11 : 修改员工基本信息数据表</text></g></g><g transform="translate(-54,-22) scale(1,1)"><path fill="none" stroke="#000000" d="M 649 264 L 649 243 L 728 243 L 728 278 L 699 278" stroke-miterlimit="10"/></g><g transform="translate(-54,-22) scale(1,1)"><path fill="none" stroke="#000000" d="M 737 262 L 737 222" stroke-miterlimit="10"/></g><g transform="translate(-54,-22) scale(1,1)"><path fill="#000000" stroke="none" d="M 732 250 L 737 262 L 741 250"/></g><g transform="translate(-54,-22) scale(1,1)"><g><path fill="none" stroke="none"/><text fill="#000000" stroke="none" font-family="Arial" font-size="13px" font-style="normal" font-weight="normal" text-decoration="none" x="769.96728515625" y="259.5">4 : 记录员工操作日志</text></g></g></g></svg>