<svg version="1.1" xmlns="http://www.w3.org/2000/svg" xmlns:xlink="http://www.w3.org/1999/xlink" width="1215" height="735"><defs/><g><g transform="translate(10,5) scale(1,1)"><path fill="none" stroke="#000000" d="M 0 5 L 1195 5 L 1195 720 L 0 720 L 0 5" stroke-miterlimit="10"/></g><g transform="translate(10,5) scale(1,1)"><path fill="#ffffff" stroke="none" d="M 0 5 L 0 27 L 226.31689453125 27 L 237.31689453125 16 L 237.31689453125 5 L 0 5"/></g><g transform="translate(10,5) scale(1,1)"><path fill="none" stroke="#000000" d="M 0 5 L 0 27 L 226.31689453125 27 L 237.31689453125 16 L 237.31689453125 5 L 0 5 L 0 5" stroke-miterlimit="10"/></g><g transform="translate(10,5) scale(1,1)"><g><path fill="none" stroke="none"/><text fill="#000000" stroke="none" font-family="Arial" font-size="13px" font-style="normal" font-weight="normal" text-decoration="none" x="70.97900390625" y="22.5">PositionChangeSequence</text></g></g><g transform="translate(10,5) scale(1,1)"><g><path fill="none" stroke="none"/><text fill="#000000" stroke="none" font-family="Arial" font-size="13px" font-style="normal" font-weight="bold" text-decoration="none" x="5" y="22.5">interaction</text></g></g><g transform="translate(10,5) scale(1,1)"><rect fill="#C0C0C0" stroke="none" x="159" y="47" width="131" height="39" opacity="0.2"/></g><g transform="translate(10,5) scale(1,1)"><rect fill="#ffffff" stroke="none" x="152" y="40" width="131" height="39"/></g><g transform="translate(10,5) scale(1,1)"><path fill="none" stroke="#000000" d="M 152 40 L 283 40 L 283 79 L 152 79 L 152 40 Z Z" stroke-miterlimit="10"/></g><g transform="translate(10,5) scale(1,1)"><g><path fill="none" stroke="none"/><text fill="#000000" stroke="none" font-family="Arial" font-size="13px" font-style="normal" font-weight="bold" text-decoration="none" x="165.5" y="59.5">：人事部管理人员</text></g></g><g transform="translate(10,5) scale(1,1)"><path fill="none" stroke="#000000" d="M 218.5 80 L 218.5 644" stroke-miterlimit="10" stroke-dasharray="3"/></g><g transform="translate(10,5) scale(1,1)"><rect fill="#C0C0C0" stroke="none" x="471" y="47" width="89" height="39" opacity="0.2"/></g><g transform="translate(10,5) scale(1,1)"><rect fill="#ffffff" stroke="none" x="464" y="40" width="89" height="39"/></g><g transform="translate(10,5) scale(1,1)"><path fill="none" stroke="#000000" d="M 464 40 L 553 40 L 553 79 L 464 79 L 464 40 Z Z" stroke-miterlimit="10"/></g><g transform="translate(10,5) scale(1,1)"><g><path fill="none" stroke="none"/><text fill="#000000" stroke="none" font-family="Arial" font-size="13px" font-style="normal" font-weight="bold" text-decoration="none" x="476" y="59.5">：系统界面</text></g></g><g transform="translate(10,5) scale(1,1)"><path fill="none" stroke="#000000" d="M 509.5 80 L 509.5 599" stroke-miterlimit="10" stroke-dasharray="3"/></g><g transform="translate(10,5) scale(1,1)"><rect fill="#C0C0C0" stroke="none" x="935" y="47" width="75" height="39" opacity="0.2"/></g><g transform="translate(10,5) scale(1,1)"><rect fill="#ffffff" stroke="none" x="928" y="40" width="75" height="39"/></g><g transform="translate(10,5) scale(1,1)"><path fill="none" stroke="#000000" d="M 928 40 L 1003 40 L 1003 79 L 928 79 L 928 40 Z Z" stroke-miterlimit="10"/></g><g transform="translate(10,5) scale(1,1)"><g><path fill="none" stroke="none"/><text fill="#000000" stroke="none" font-family="Arial" font-size="13px" font-style="normal" font-weight="bold" text-decoration="none" x="939.5" y="59.5">：数据库</text></g></g><g transform="translate(10,5) scale(1,1)"><path fill="none" stroke="#000000" d="M 966.5 80 L 966.5 684" stroke-miterlimit="10" stroke-dasharray="3"/></g><g transform="translate(10,5) scale(1,1)"><rect fill="#C0C0C0" stroke="none" x="727" y="47" width="71.736328125" height="39" opacity="0.2"/></g><g transform="translate(10,5) scale(1,1)"><rect fill="#ffffff" stroke="none" x="720" y="40" width="71.736328125" height="39"/></g><g transform="translate(10,5) scale(1,1)"><path fill="none" stroke="#000000" d="M 720 40 L 791.736328125 40 L 791.736328125 79 L 720 79 L 720 40 Z Z" stroke-miterlimit="10"/></g><g transform="translate(10,5) scale(1,1)"><g><path fill="none" stroke="none"/><text fill="#000000" stroke="none" font-family="Arial" font-size="13px" font-style="normal" font-weight="bold" text-decoration="none" x="736.3681640625" y="59.5">：系统</text></g></g><g transform="translate(10,5) scale(1,1)"><path fill="none" stroke="#000000" d="M 756.5 80 L 756.5 702" stroke-miterlimit="10" stroke-dasharray="3"/></g><g transform="translate(10,5) scale(1,1)"><path fill="none" stroke="#000000" d="M 80 240 L 1128 240 L 1128 488 L 80 488 L 80 240" stroke-miterlimit="10"/></g><g transform="translate(10,5) scale(1,1)"><path fill="#ffffff" stroke="none" d="M 80 240 L 80 262 L 276.578125 262 L 287.578125 251 L 287.578125 240 L 80 240"/></g><g transform="translate(10,5) scale(1,1)"><path fill="none" stroke="#000000" d="M 80 240 L 80 262 L 276.578125 262 L 287.578125 251 L 287.578125 240 L 80 240 L 80 240" stroke-miterlimit="10"/></g><g transform="translate(10,5) scale(1,1)"><g><path fill="none" stroke="none"/><text fill="#000000" stroke="none" font-family="Arial" font-size="13px" font-style="normal" font-weight="normal" text-decoration="none" x="115.578125" y="257.5">输入员工或者部门信息有误</text></g></g><g transform="translate(10,5) scale(1,1)"><g><path fill="none" stroke="none"/><text fill="#000000" stroke="none" font-family="Arial" font-size="13px" font-style="normal" font-weight="bold" text-decoration="none" x="85" y="257.5">loop</text></g></g><g transform="translate(10,5) scale(1,1)"><path fill="none" stroke="#000000" d="M 762 280 L 959 280" stroke-miterlimit="10"/></g><g transform="translate(10,5) scale(1,1)"><path fill="#000000" stroke="none" d="M 948.8373251423759 284.209517756016 L 959 280 L 948.8373251423758 275.790482243984"/></g><g transform="translate(10,5) scale(1,1)"><path fill="none" stroke="#000000" d="M 948.8373251423759 284.209517756016 L 959 280 L 948.8373251423758 275.790482243984 L 948.8373251423759 284.209517756016" stroke-miterlimit="10"/></g><g transform="translate(10,5) scale(1,1)"><g><path fill="none" stroke="none"/><text fill="#000000" stroke="none" font-family="Arial" font-size="13px" font-style="normal" font-weight="normal" text-decoration="none" x="788.5" y="276.5">20 : 校验员工、部门信息</text></g></g><g transform="translate(10,5) scale(1,1)"><rect fill="#ffffff" stroke="none" x="959" y="280" width="13" height="49"/></g><g transform="translate(10,5) scale(1,1)"><path fill="none" stroke="#000000" d="M 959 280 L 972 280 L 972 329 L 959 329 L 959 280 Z Z" stroke-miterlimit="10"/></g><g transform="translate(10,5) scale(1,1)"><path fill="none" stroke="#000000" d="M 756 408 L 224 408" stroke-miterlimit="10"/></g><g transform="translate(10,5) scale(1,1)"><path fill="#000000" stroke="none" d="M 234.16267485762415 403.790482243984 L 224 408 L 234.16267485762415 412.209517756016"/></g><g transform="translate(10,5) scale(1,1)"><path fill="none" stroke="#000000" d="M 234.16267485762415 403.790482243984 L 224 408 L 234.16267485762415 412.209517756016 L 234.16267485762415 403.790482243984" stroke-miterlimit="10"/></g><g transform="translate(10,5) scale(1,1)"><g><path fill="none" stroke="none"/><text fill="#000000" stroke="none" font-family="Arial" font-size="13px" font-style="normal" font-weight="normal" text-decoration="none" x="411.5" y="424.5">21 : 返回员工信息有误信息</text></g></g><g transform="translate(10,5) scale(1,1)"><rect fill="#ffffff" stroke="none" x="211" y="408" width="13" height="28"/></g><g transform="translate(10,5) scale(1,1)"><path fill="none" stroke="#000000" d="M 211 408 L 224 408 L 224 436 L 211 436 L 211 408 Z Z" stroke-miterlimit="10"/></g><g transform="translate(10,5) scale(1,1)"><path fill="none" stroke="#000000" d="M 224 576 L 749 576" stroke-miterlimit="10"/></g><g transform="translate(10,5) scale(1,1)"><path fill="#000000" stroke="none" d="M 738.8373251423759 580.209517756016 L 749 576 L 738.8373251423758 571.790482243984"/></g><g transform="translate(10,5) scale(1,1)"><path fill="none" stroke="#000000" d="M 738.8373251423759 580.209517756016 L 749 576 L 738.8373251423758 571.790482243984 L 738.8373251423759 580.209517756016" stroke-miterlimit="10"/></g><g transform="translate(10,5) scale(1,1)"><g><path fill="none" stroke="none"/><text fill="#000000" stroke="none" font-family="Arial" font-size="13px" font-style="normal" font-weight="normal" text-decoration="none" x="446.87451171875" y="572.5">22 : 确认修改</text></g></g><g transform="translate(10,5) scale(1,1)"><rect fill="#ffffff" stroke="none" x="749" y="576" width="13" height="54"/></g><g transform="translate(10,5) scale(1,1)"><path fill="none" stroke="#000000" d="M 749 576 L 762 576 L 762 630 L 749 630 L 749 576 Z Z" stroke-miterlimit="10"/></g><g transform="translate(10,5) scale(1,1)"><path fill="none" stroke="#000000" d="M 769 616 L 959 616" stroke-miterlimit="10"/></g><g transform="translate(10,5) scale(1,1)"><path fill="#000000" stroke="none" d="M 948.8373251423759 620.209517756016 L 959 616 L 948.8373251423758 611.790482243984"/></g><g transform="translate(10,5) scale(1,1)"><path fill="none" stroke="#000000" d="M 948.8373251423759 620.209517756016 L 959 616 L 948.8373251423758 611.790482243984 L 948.8373251423759 620.209517756016" stroke-miterlimit="10"/></g><g transform="translate(10,5) scale(1,1)"><g><path fill="none" stroke="none"/><text fill="#000000" stroke="none" font-family="Arial" font-size="13px" font-style="normal" font-weight="normal" text-decoration="none" x="766.5000991821289" y="612.5">23 : 提交系统对数据库修改的日志</text></g></g><g transform="translate(10,5) scale(1,1)"><rect fill="#ffffff" stroke="none" x="959" y="616" width="13" height="54"/></g><g transform="translate(10,5) scale(1,1)"><path fill="none" stroke="#000000" d="M 959 616 L 972 616 L 972 670 L 959 670 L 959 616 Z Z" stroke-miterlimit="10"/></g><g transform="translate(10,5) scale(1,1)"><path fill="none" stroke="#000000" d="M 218 160 L 502 160" stroke-miterlimit="10"/></g><g transform="translate(10,5) scale(1,1)"><path fill="#000000" stroke="none" d="M 491.83732514237585 164.209517756016 L 502 160 L 491.83732514237585 155.790482243984"/></g><g transform="translate(10,5) scale(1,1)"><path fill="none" stroke="#000000" d="M 491.83732514237585 164.209517756016 L 502 160 L 491.83732514237585 155.790482243984 L 491.83732514237585 164.209517756016" stroke-miterlimit="10"/></g><g transform="translate(10,5) scale(1,1)"><g><path fill="none" stroke="none"/><text fill="#000000" stroke="none" font-family="Arial" font-size="13px" font-style="normal" font-weight="normal" text-decoration="none" x="299.114990234375" y="156.5">1 : 点击职工调动按钮</text></g></g><g transform="translate(10,5) scale(1,1)"><rect fill="#ffffff" stroke="none" x="502" y="160" width="13" height="28"/></g><g transform="translate(10,5) scale(1,1)"><path fill="none" stroke="#000000" d="M 502 160 L 515 160 L 515 188 L 502 188 L 502 160 Z Z" stroke-miterlimit="10"/></g><g transform="translate(10,5) scale(1,1)"><path fill="none" stroke="#000000" d="M 509 189 L 224 189" stroke-miterlimit="10"/></g><g transform="translate(10,5) scale(1,1)"><path fill="#000000" stroke="none" d="M 234.16267485762415 184.790482243984 L 224 189 L 234.16267485762415 193.209517756016"/></g><g transform="translate(10,5) scale(1,1)"><path fill="none" stroke="#000000" d="M 234.16267485762415 184.790482243984 L 224 189 L 234.16267485762415 193.209517756016 L 234.16267485762415 184.790482243984" stroke-miterlimit="10"/></g><g transform="translate(10,5) scale(1,1)"><g><path fill="none" stroke="none"/><text fill="#000000" stroke="none" font-family="Arial" font-size="13px" font-style="normal" font-weight="normal" text-decoration="none" x="291.114990234375" y="205.5">2 : 返回员工调动申请页面</text></g></g><g transform="translate(10,5) scale(1,1)"><rect fill="#ffffff" stroke="none" x="211" y="189" width="13" height="28"/></g><g transform="translate(10,5) scale(1,1)"><path fill="none" stroke="#000000" d="M 211 189 L 224 189 L 224 217 L 211 217 L 211 189 Z Z" stroke-miterlimit="10"/></g><g transform="translate(10,5) scale(1,1)"><path fill="none" stroke="#000000" d="M 218 280 L 749 280" stroke-miterlimit="10"/></g><g transform="translate(10,5) scale(1,1)"><path fill="#000000" stroke="none" d="M 738.8373251423759 284.209517756016 L 749 280 L 738.8373251423758 275.790482243984"/></g><g transform="translate(10,5) scale(1,1)"><path fill="none" stroke="#000000" d="M 738.8373251423759 284.209517756016 L 749 280 L 738.8373251423758 275.790482243984 L 738.8373251423759 284.209517756016" stroke-miterlimit="10"/></g><g transform="translate(10,5) scale(1,1)"><g><path fill="none" stroke="none"/><text fill="#000000" stroke="none" font-family="Arial" font-size="13px" font-style="normal" font-weight="normal" text-decoration="none" x="414" y="276.5">3 : 填写员工职位调动信息</text></g></g><g transform="translate(10,5) scale(1,1)"><rect fill="#ffffff" stroke="none" x="749" y="280" width="13" height="86"/></g><g transform="translate(10,5) scale(1,1)"><path fill="none" stroke="#000000" d="M 749 280 L 762 280 L 762 366 L 749 366 L 749 280 Z Z" stroke-miterlimit="10"/></g><g transform="translate(10,5) scale(1,1)"><path fill="none" stroke="#000000" d="M 762 312 L 792 312 L 792 332 L 769 332" stroke-miterlimit="10"/></g><g transform="translate(10,5) scale(1,1)"><path fill="#000000" stroke="none" d="M 779.1626748576241 327.790482243984 L 769 332 L 779.1626748576241 336.209517756016"/></g><g transform="translate(10,5) scale(1,1)"><path fill="none" stroke="#000000" d="M 779.1626748576241 327.790482243984 L 769 332 L 779.1626748576241 336.209517756016 L 779.1626748576241 327.790482243984" stroke-miterlimit="10"/></g><g transform="translate(10,5) scale(1,1)"><g><path fill="none" stroke="none"/><text fill="#000000" stroke="none" font-family="Arial" font-size="13px" font-style="normal" font-weight="normal" text-decoration="none" x="763.489501953125" y="364.5">5 : 记录日志</text></g></g><g transform="translate(10,5) scale(1,1)"><rect fill="#ffffff" stroke="none" x="756" y="332" width="13" height="31"/></g><g transform="translate(10,5) scale(1,1)"><path fill="none" stroke="#000000" d="M 756 332 L 769 332 L 769 363 L 756 363 L 756 332 Z Z" stroke-miterlimit="10"/></g><g transform="translate(10,5) scale(1,1)"><path fill="none" stroke="#000000" d="M 756 528 L 224 528" stroke-miterlimit="10"/></g><g transform="translate(10,5) scale(1,1)"><path fill="#000000" stroke="none" d="M 234.16267485762415 523.790482243984 L 224 528 L 234.16267485762415 532.209517756016"/></g><g transform="translate(10,5) scale(1,1)"><path fill="none" stroke="#000000" d="M 234.16267485762415 523.790482243984 L 224 528 L 234.16267485762415 532.209517756016 L 234.16267485762415 523.790482243984" stroke-miterlimit="10"/></g><g transform="translate(10,5) scale(1,1)"><g><path fill="none" stroke="none"/><text fill="#000000" stroke="none" font-family="Arial" font-size="13px" font-style="normal" font-weight="normal" text-decoration="none" x="428.114990234375" y="544.5">7 : 返回确认修改信息</text></g></g><g transform="translate(10,5) scale(1,1)"><rect fill="#ffffff" stroke="none" x="211" y="528" width="13" height="55"/></g><g transform="translate(10,5) scale(1,1)"><path fill="none" stroke="#000000" d="M 211 528 L 224 528 L 224 583 L 211 583 L 211 528 Z Z" stroke-miterlimit="10"/></g><g transform="translate(10,5) scale(1,1)"><path fill="none" stroke="#000000" d="M 972 616 L 1002 616 L 1002 636 L 979 636" stroke-miterlimit="10"/></g><g transform="translate(10,5) scale(1,1)"><path fill="#000000" stroke="none" d="M 989.1626748576241 631.790482243984 L 979 636 L 989.1626748576241 640.209517756016"/></g><g transform="translate(10,5) scale(1,1)"><path fill="none" stroke="#000000" d="M 989.1626748576241 631.790482243984 L 979 636 L 989.1626748576241 640.209517756016 L 989.1626748576241 631.790482243984" stroke-miterlimit="10"/></g><g transform="translate(10,5) scale(1,1)"><g><path fill="none" stroke="none"/><text fill="#000000" stroke="none" font-family="Arial" font-size="13px" font-style="normal" font-weight="normal" text-decoration="none" x="1030.982421875" y="628.5">11 : 修改员工基本信息表</text></g></g><g transform="translate(10,5) scale(1,1)"><rect fill="#ffffff" stroke="none" x="966" y="636" width="13" height="31"/></g><g transform="translate(10,5) scale(1,1)"><path fill="none" stroke="#000000" d="M 966 636 L 979 636 L 979 667 L 966 667 L 966 636 Z Z" stroke-miterlimit="10"/></g><g transform="translate(10,5) scale(1,1)"><path fill="none" stroke="#000000" d="M 762 576 L 792 576 L 792 596 L 769 596" stroke-miterlimit="10"/></g><g transform="translate(10,5) scale(1,1)"><path fill="#000000" stroke="none" d="M 779.1626748576241 591.790482243984 L 769 596 L 779.1626748576241 600.209517756016"/></g><g transform="translate(10,5) scale(1,1)"><path fill="none" stroke="#000000" d="M 779.1626748576241 591.790482243984 L 769 596 L 779.1626748576241 600.209517756016 L 779.1626748576241 591.790482243984" stroke-miterlimit="10"/></g><g transform="translate(10,5) scale(1,1)"><g><path fill="none" stroke="none"/><text fill="#000000" stroke="none" font-family="Arial" font-size="13px" font-style="normal" font-weight="normal" text-decoration="none" x="766.1044921875" y="591.5">9 : 记录日志</text></g></g><g transform="translate(10,5) scale(1,1)"><rect fill="#ffffff" stroke="none" x="756" y="596" width="13" height="31"/></g><g transform="translate(10,5) scale(1,1)"><path fill="none" stroke="#000000" d="M 756 596 L 769 596 L 769 627 L 756 627 L 756 596 Z Z" stroke-miterlimit="10"/></g></g></svg>